<?xml version="1.0" standalone="no"?>
<!DOCTYPE svg PUBLIC "-//W3C//DTD SVG 20010904//EN"
 "http://www.w3.org/TR/2001/REC-SVG-20010904/DTD/svg10.dtd">
<svg version="1.0" xmlns="http://www.w3.org/2000/svg"
 width="388.000000pt" height="388.000000pt" viewBox="0 0 388.000000 388.000000"
 preserveAspectRatio="xMidYMid meet">
<metadata>
Created by potrace 1.14, written by Peter Selinger 2001-2017
</metadata>
<g transform="translate(0.000000,388.000000) scale(0.100000,-0.100000)"
fill="#000000" stroke="none">
<path d="M1307 2924 c-1 -1 -55 -5 -119 -8 -129 -7 -138 -8 -313 -37 -239 -40
-428 -105 -586 -205 -74 -46 -191 -172 -226 -244 -65 -134 -75 -294 -27 -437
62 -183 234 -385 462 -541 89 -61 100 -68 232 -140 206 -113 591 -245 840
-288 25 -4 47 -8 50 -9 44 -10 114 -20 210 -30 36 -4 76 -8 90 -11 136 -22
677 -22 797 0 10 2 47 7 83 11 36 4 74 9 85 11 11 3 36 7 55 10 56 9 240 53
284 68 412 141 627 335 651 586 32 342 -320 727 -900 983 -235 104 -577 203
-808 233 -15 2 -47 6 -70 9 -115 15 -116 15 -332 31 -83 6 -453 13 -458 8z
m338 -129 c218 -9 247 -11 415 -31 323 -40 696 -147 955 -277 93 -46 235 -127
235 -133 0 -3 -26 -2 -57 1 -32 3 -107 7 -168 10 -60 2 -150 7 -200 10 -565
35 -1669 39 -2295 10 -41 -2 -140 -7 -218 -10 l-144 -7 25 38 c140 204 397
314 892 378 22 3 114 8 205 12 91 4 167 8 169 10 2 2 7 2 10 0 3 -2 83 -7 176
-11z m-1443 -631 c25 -13 60 -14 221 -9 357 11 712 16 733 11 12 -3 25 -14 29
-23 3 -10 6 -108 5 -218 -1 -110 -2 -231 -1 -268 1 -108 7 -105 -258 -102
-255 3 -263 0 -209 -67 16 -21 27 -38 24 -38 -3 0 -47 25 -97 56 -269 163
-449 356 -502 539 -8 28 -15 82 -16 120 l-1 70 21 -28 c12 -15 34 -34 51 -43z
m3419 -137 c129 -171 162 -328 98 -467 -28 -61 -118 -159 -189 -207 -164 -111
-434 -205 -685 -239 -27 -3 -58 -8 -67 -9 -18 -4 -140 -15 -223 -21 -204 -14
-561 0 -760 31 -16 3 -48 7 -70 11 -175 26 -367 75 -558 140 -240 84 -241 83
43 78 600 -12 1387 -10 1450 2 122 25 145 46 546 489 54 60 120 132 146 160
26 27 67 80 90 117 l43 67 38 -37 c21 -20 65 -72 98 -115z m-1125 128 c86 -6
128 -26 152 -71 16 -29 2 -79 -45 -160 -23 -38 -50 -85 -61 -104 -121 -213
-148 -253 -177 -265 -32 -13 -511 -14 -552 -1 -11 4 -23 17 -26 29 -3 12 -4
143 -3 291 2 253 3 269 22 283 16 12 70 13 324 8 168 -3 332 -7 366 -10z"/>
</g>
</svg>
